# xmcd
#
# Track frame offsets:
#	150
#	17285
#	54927
#	79362
#	89405
#	102475
#	130040
#	150012
#	177275
#	209292
#	231625
#	238202
#	255835
#	310672
#
# Disc length: 4482 seconds
#
# Revision: 5
# Processed by: cddbd v1.4PL0 Copyright (c) Steve Scherf et al.
# Submitted via: EasyCDDAExtractor 5.0.0.0
#
DISCID=a611800e
DTITLE=Erykah Badu - Live
DYEAR=1997
DGENRE=Soul
TTITLE0=Rimshot (Intro)
TTITLE1=Other Side Of The Game
TTITLE2=On and On
TTITLE3=Reprise
TTITLE4=Apple Tree
TTITLE5=Ye Yo
TTITLE6=Searching
TTITLE7=Boogie Nights - All Night
TTITLE8=Certainly
TTITLE9=Stay
TTITLE10=Next Lifetime (Interlude)
TTITLE11=Tyrone
TTITLE12=Next Lifetime
TTITLE13=Tyrone (Extended Version)
EXTD=
EXTT0=
EXTT1=
EXTT2=
EXTT3=
EXTT4=
EXTT5=
EXTT6=
EXTT7=
EXTT8=
EXTT9=
EXTT10=
EXTT11=
EXTT12=
EXTT13=
PLAYORDER=
